<mxfile host="app.diagrams.net" modified="2023-05-05T10:00:00.000Z" agent="5.0 (Windows NT 10.0; Win64; x64) AppleWebKit/537.36 (KHTML, like Gecko) Chrome/91.0.4472.124 Safari/537.36" etag="inventory-out-123" version="14.7.0" type="device">
  <diagram id="inventory-out-sequence" name="出庫処理のシーケンス図">
    <mxGraphModel dx="1422" dy="762" grid="1" gridSize="10" guides="1" tooltips="1" connect="1" arrows="1" fold="1" page="1" pageScale="1" pageWidth="1169" pageHeight="827" math="0" shadow="0">
      <root>
        <mxCell id="0" />
        <mxCell id="1" parent="0" />
        <mxCell id="title" value="出庫処理のシーケンス図" style="text;html=1;align=center;verticalAlign=middle;resizable=0;points=[];autosize=1;strokeColor=none;fillColor=none;fontSize=18;fontStyle=1" vertex="1" parent="1">
          <mxGeometry x="430" y="20" width="230" height="40" as="geometry" />
        </mxCell>
        
        <!-- アクター：ユーザー -->
        <mxCell id="user" value="ユーザー" style="shape=umlActor;verticalLabelPosition=bottom;verticalAlign=top;html=1;" vertex="1" parent="1">
          <mxGeometry x="100" y="80" width="30" height="60" as="geometry" />
        </mxCell>
        
        <!-- オブジェクト：ブラウザ -->
        <mxCell id="browser" value="ブラウザ" style="html=1;fontSize=14;" vertex="1" parent="1">
          <mxGeometry x="220" y="90" width="100" height="40" as="geometry" />
        </mxCell>
        
        <!-- オブジェクト：InventoryController -->
        <mxCell id="controller" value="在庫コントローラ&#xa;(InventoryController)" style="html=1;fontSize=14;" vertex="1" parent="1">
          <mxGeometry x="380" y="90" width="160" height="40" as="geometry" />
        </mxCell>
        
        <!-- オブジェクト：ProductService -->
        <mxCell id="productService" value="商品サービス&#xa;(ProductService)" style="html=1;fontSize=14;" vertex="1" parent="1">
          <mxGeometry x="600" y="90" width="160" height="40" as="geometry" />
        </mxCell>
        
        <!-- オブジェクト：InventoryService -->
        <mxCell id="inventoryService" value="在庫サービス&#xa;(InventoryService)" style="html=1;fontSize=14;" vertex="1" parent="1">
          <mxGeometry x="820" y="90" width="160" height="40" as="geometry" />
        </mxCell>
        
        <!-- ライフライン -->
        <mxCell id="userLine" value="" style="html=1;points=[];perimeter=orthogonalPerimeter;" vertex="1" parent="1">
          <mxGeometry x="115" y="150" width="1" height="590" as="geometry" />
        </mxCell>
        
        <mxCell id="browserLine" value="" style="html=1;points=[];perimeter=orthogonalPerimeter;" vertex="1" parent="1">
          <mxGeometry x="269.5" y="150" width="1" height="590" as="geometry" />
        </mxCell>
        
        <mxCell id="controllerLine" value="" style="html=1;points=[];perimeter=orthogonalPerimeter;" vertex="1" parent="1">
          <mxGeometry x="459.5" y="150" width="1" height="590" as="geometry" />
        </mxCell>
        
        <mxCell id="productServiceLine" value="" style="html=1;points=[];perimeter=orthogonalPerimeter;" vertex="1" parent="1">
          <mxGeometry x="679.5" y="150" width="1" height="590" as="geometry" />
        </mxCell>
        
        <mxCell id="inventoryServiceLine" value="" style="html=1;points=[];perimeter=orthogonalPerimeter;" vertex="1" parent="1">
          <mxGeometry x="899.5" y="150" width="1" height="590" as="geometry" />
        </mxCell>
        
        <!-- シーケンス：出庫フォーム表示 -->
        <!-- ユーザー -> ブラウザ -->
        <mxCell id="userToBrowser1" value="出庫画面にアクセス" style="html=1;verticalAlign=bottom;endArrow=block;entryX=0;entryY=0;" edge="1" parent="1" source="userLine" target="browserActivation1">
          <mxGeometry relative="1" as="geometry">
            <mxPoint x="180" y="180" as="sourcePoint" />
          </mxGeometry>
        </mxCell>
        
        <!-- ブラウザのアクティベーション -->
        <mxCell id="browserActivation1" value="" style="html=1;points=[];perimeter=orthogonalPerimeter;fillColor=#dae8fc;strokeColor=#6c8ebf;" vertex="1" parent="1">
          <mxGeometry x="265" y="180" width="10" height="60" as="geometry" />
        </mxCell>
        
        <!-- ブラウザ -> コントローラ -->
        <mxCell id="browserToController1" value="GET /inventory/subtract" style="html=1;verticalAlign=bottom;endArrow=block;entryX=0;entryY=0;" edge="1" parent="1" source="browserActivation1" target="controllerActivation1">
          <mxGeometry relative="1" as="geometry">
            <mxPoint x="350" y="200" as="sourcePoint" />
          </mxGeometry>
        </mxCell>
        
        <!-- コントローラのアクティベーション -->
        <mxCell id="controllerActivation1" value="" style="html=1;points=[];perimeter=orthogonalPerimeter;fillColor=#d5e8d4;strokeColor=#82b366;" vertex="1" parent="1">
          <mxGeometry x="455" y="200" width="10" height="180" as="geometry" />
        </mxCell>
        
        <!-- コントローラ -> ProductService：商品一覧取得 -->
        <mxCell id="controllerToProductService1" value="findAll()" style="html=1;verticalAlign=bottom;endArrow=block;entryX=0;entryY=0;" edge="1" parent="1" source="controllerActivation1" target="productServiceActivation1">
          <mxGeometry relative="1" as="geometry">
            <mxPoint x="530" y="240" as="sourcePoint" />
          </mxGeometry>
        </mxCell>
        
        <!-- ProductServiceのアクティベーション -->
        <mxCell id="productServiceActivation1" value="" style="html=1;points=[];perimeter=orthogonalPerimeter;fillColor=#fff2cc;strokeColor=#d6b656;" vertex="1" parent="1">
          <mxGeometry x="675" y="240" width="10" height="60" as="geometry" />
        </mxCell>
        
        <!-- ProductService -> コントローラ：商品リスト返却 -->
        <mxCell id="productServiceToController1" value="List&lt;Product&gt;" style="html=1;verticalAlign=bottom;endArrow=open;dashed=1;endSize=8;" edge="1" parent="1" source="productServiceActivation1" target="controllerActivation1">
          <mxGeometry relative="1" as="geometry">
            <mxPoint x="530" y="300" as="targetPoint" />
          </mxGeometry>
        </mxCell>
        
        <!-- 内部処理：モデル準備 -->
        <mxCell id="controllerInternalProcess1" value="" style="html=1;points=[];perimeter=orthogonalPerimeter;fillColor=#d5e8d4;strokeColor=#82b366;" vertex="1" parent="1">
          <mxGeometry x="460" y="320" width="10" height="40" as="geometry" />
        </mxCell>
        
        <mxCell id="controllerInternalNote1" value="モデルに新規入出庫履歴オブジェクト&#xa;商品リスト、タイプ（出庫）を追加" style="shape=note;size=15;align=left;spacingLeft=5;html=1;whiteSpace=wrap;" vertex="1" parent="1">
          <mxGeometry x="480" y="310" width="200" height="50" as="geometry" />
        </mxCell>
        
        <!-- コントローラ -> ブラウザ：ビュー名返却 -->
        <mxCell id="controllerToBrowser1" value="ビュー名: 'inventory/subtract'" style="html=1;verticalAlign=bottom;endArrow=open;dashed=1;endSize=8;exitX=0;exitY=0.95;" edge="1" parent="1" source="controllerActivation1" target="browserActivation2">
          <mxGeometry relative="1" as="geometry">
            <mxPoint x="350" y="371" as="targetPoint" />
          </mxGeometry>
        </mxCell>
        
        <!-- ブラウザのアクティベーション (2) -->
        <mxCell id="browserActivation2" value="" style="html=1;points=[];perimeter=orthogonalPerimeter;fillColor=#dae8fc;strokeColor=#6c8ebf;" vertex="1" parent="1">
          <mxGeometry x="265" y="360" width="10" height="60" as="geometry" />
        </mxCell>
        
        <!-- ブラウザ -> ユーザー：フォーム表示 -->
        <mxCell id="browserToUser1" value="出庫フォームを表示" style="html=1;verticalAlign=bottom;endArrow=open;dashed=1;endSize=8;" edge="1" parent="1" source="browserActivation2" target="userLine">
          <mxGeometry relative="1" as="geometry">
            <mxPoint x="180" y="420" as="targetPoint" />
          </mxGeometry>
        </mxCell>
        
        <!-- シーケンス：出庫処理 -->
        <!-- ユーザー -> ブラウザ：フォーム送信 -->
        <mxCell id="userToBrowser2" value="出庫情報を入力して登録" style="html=1;verticalAlign=bottom;endArrow=block;entryX=0;entryY=0;" edge="1" parent="1" target="browserActivation3">
          <mxGeometry relative="1" as="geometry">
            <mxPoint x="115" y="470" as="sourcePoint" />
          </mxGeometry>
        </mxCell>
        
        <!-- ブラウザのアクティベーション (3) -->
        <mxCell id="browserActivation3" value="" style="html=1;points=[];perimeter=orthogonalPerimeter;fillColor=#dae8fc;strokeColor=#6c8ebf;" vertex="1" parent="1">
          <mxGeometry x="265" y="470" width="10" height="60" as="geometry" />
        </mxCell>
        
        <!-- ブラウザ -> コントローラ：出庫処理リクエスト -->
        <mxCell id="browserToController2" value="POST /inventory/process" style="html=1;verticalAlign=bottom;endArrow=block;entryX=0;entryY=0;" edge="1" parent="1" source="browserActivation3" target="controllerActivation2">
          <mxGeometry relative="1" as="geometry">
            <mxPoint x="350" y="530" as="sourcePoint" />
          </mxGeometry>
        </mxCell>
        
        <!-- コントローラのアクティベーション (2) -->
        <mxCell id="controllerActivation2" value="" style="html=1;points=[];perimeter=orthogonalPerimeter;fillColor=#d5e8d4;strokeColor=#82b366;" vertex="1" parent="1">
          <mxGeometry x="455" y="520" width="10" height="160" as="geometry" />
        </mxCell>
        
        <!-- 内部処理：ユーザーID設定と出庫数マイナス変換 -->
        <mxCell id="controllerInternalProcess2" value="" style="html=1;points=[];perimeter=orthogonalPerimeter;fillColor=#d5e8d4;strokeColor=#82b366;" vertex="1" parent="1">
          <mxGeometry x="460" y="550" width="10" height="40" as="geometry" />
        </mxCell>
        
        <mxCell id="controllerInternalNote2" value="操作ユーザーのIDを設定&#xa;出庫数を負の値に変換" style="shape=note;size=15;align=left;spacingLeft=5;html=1;whiteSpace=wrap;" vertex="1" parent="1">
          <mxGeometry x="480" y="545" width="150" height="50" as="geometry" />
        </mxCell>
        
        <!-- コントローラ -> InventoryService：出庫履歴登録 -->
        <mxCell id="controllerToInventoryService1" value="addInventoryHistory(inventoryHistory)" style="html=1;verticalAlign=bottom;endArrow=block;entryX=0;entryY=0;" edge="1" parent="1" source="controllerActivation2" target="inventoryServiceActivation1">
          <mxGeometry relative="1" as="geometry">
            <mxPoint x="600" y="610" as="sourcePoint" />
          </mxGeometry>
        </mxCell>
        
        <!-- InventoryServiceのアクティベーション -->
        <mxCell id="inventoryServiceActivation1" value="" style="html=1;points=[];perimeter=orthogonalPerimeter;fillColor=#fff2cc;strokeColor=#d6b656;" vertex="1" parent="1">
          <mxGeometry x="895" y="610" width="10" height="70" as="geometry" />
        </mxCell>
        
        <!-- InventoryService内の在庫チェック処理 -->
        <mxCell id="inventoryServiceInternalProcess1" value="" style="html=1;points=[];perimeter=orthogonalPerimeter;fillColor=#fff2cc;strokeColor=#d6b656;" vertex="1" parent="1">
          <mxGeometry x="900" y="630" width="10" height="30" as="geometry" />
        </mxCell>
        
        <mxCell id="inventoryServiceInternalNote1" value="出庫数が在庫数を超える場合は&#xa;例外をスロー" style="shape=note;size=15;align=left;spacingLeft=5;html=1;whiteSpace=wrap;" vertex="1" parent="1">
          <mxGeometry x="920" y="620" width="170" height="40" as="geometry" />
        </mxCell>
        
        <!-- InventoryService -> コントローラ：登録結果返却 -->
        <mxCell id="inventoryServiceToController1" value="saved inventoryHistory" style="html=1;verticalAlign=bottom;endArrow=open;dashed=1;endSize=8;" edge="1" parent="1" source="inventoryServiceActivation1" target="controllerActivation2">
          <mxGeometry relative="1" as="geometry">
            <mxPoint x="600" y="680" as="targetPoint" />
          </mxGeometry>
        </mxCell>
        
        <!-- コントローラ -> ブラウザ：リダイレクト -->
        <mxCell id="controllerToBrowser2" value="リダイレクト: /inventory" style="html=1;verticalAlign=bottom;endArrow=open;dashed=1;endSize=8;" edge="1" parent="1" source="controllerActivation2" target="browserActivation4">
          <mxGeometry relative="1" as="geometry">
            <mxPoint x="350" y="680" as="targetPoint" />
          </mxGeometry>
        </mxCell>
        
        <!-- ブラウザのアクティベーション (4) -->
        <mxCell id="browserActivation4" value="" style="html=1;points=[];perimeter=orthogonalPerimeter;fillColor=#dae8fc;strokeColor=#6c8ebf;" vertex="1" parent="1">
          <mxGeometry x="265" y="660" width="10" height="60" as="geometry" />
        </mxCell>
        
        <!-- ブラウザ -> ユーザー：在庫一覧画面表示 -->
        <mxCell id="browserToUser2" value="出庫完了メッセージと&#xa;在庫一覧画面を表示" style="html=1;verticalAlign=bottom;endArrow=open;dashed=1;endSize=8;" edge="1" parent="1" source="browserActivation4" target="userLine">
          <mxGeometry relative="1" as="geometry">
            <mxPoint x="180" y="720" as="targetPoint" />
          </mxGeometry>
        </mxCell>
        
        <!-- エラーケースの追加 -->
        <mxCell id="errorFrame" value="例外ケース：在庫不足" style="shape=umlFrame;whiteSpace=wrap;html=1;width=130;height=30;" vertex="1" parent="1">
          <mxGeometry x="180" y="730" width="720" height="100" as="geometry" />
        </mxCell>
        
        <mxCell id="errorNote" value="在庫不足の場合は、エラーメッセージと共に出庫フォームが再表示される。&#xa;このシーケンスでは、InventoryServiceがチェックを行い、在庫が不足している場合は&#xa;例外をスローする。コントローラがこれをキャッチし、エラーメッセージをモデルに追加、&#xa;出庫フォームを再表示するように処理する。" style="shape=note;size=15;align=left;spacingLeft=5;html=1;whiteSpace=wrap;" vertex="1" parent="1">
          <mxGeometry x="320" y="750" width="450" height="70" as="geometry" />
        </mxCell>
        
      </root>
    </mxGraphModel>
  </diagram>
</mxfile>